<mxfile host="app.diagrams.net" modified="2023-03-31T06:49:03.115Z" agent="Mozilla/5.0 (Windows NT 10.0; Win64; x64) AppleWebKit/537.36 (KHTML, like Gecko) Chrome/111.0.0.0 Safari/537.36" etag="KJNKkvlJHjwEbsOPVRfr" version="21.1.2" type="device">
  <diagram name="PÃ¡gina-1" id="ybtAbWXDy3el6Lk9Hd4u">
    <mxGraphModel dx="1434" dy="834" grid="1" gridSize="10" guides="1" tooltips="1" connect="1" arrows="1" fold="1" page="1" pageScale="1" pageWidth="827" pageHeight="1169" math="0" shadow="0">
      <root>
        <mxCell id="0" />
        <mxCell id="1" parent="0" />
        <mxCell id="0A3lsdpq9jtskfbA3jTb-1" value="Ejercicio 1.&lt;br&gt;&lt;br&gt;Entidad:&lt;br&gt;&lt;br&gt;Cliente&lt;br&gt;Persona&lt;br&gt;Organizacion&lt;br&gt;Sucursal&lt;br&gt;Empleado&lt;br&gt;Cuenta" style="text;html=1;align=center;verticalAlign=middle;resizable=0;points=[];autosize=1;strokeColor=none;fillColor=none;" vertex="1" parent="1">
          <mxGeometry x="20" y="65" width="90" height="160" as="geometry" />
        </mxCell>
        <mxCell id="0A3lsdpq9jtskfbA3jTb-2" value="Atributos:&lt;br&gt;&lt;br&gt;nombre, direccion, codigo&lt;br&gt;fecha de nacimiento, genero&lt;br&gt;Tipo, representante, cantidad de empleados&lt;br&gt;numero, telefono, direccion, ciudad&lt;br&gt;codigo, nombre, fecha de nacimiento, genero&lt;br&gt;tipo, numero, saldo actual, saldo promedio" style="text;html=1;strokeColor=none;fillColor=none;align=center;verticalAlign=middle;whiteSpace=wrap;rounded=0;" vertex="1" parent="1">
          <mxGeometry x="120" y="126" width="260" height="70" as="geometry" />
        </mxCell>
        <mxCell id="0A3lsdpq9jtskfbA3jTb-3" value="cliente" style="rounded=0;whiteSpace=wrap;html=1;" vertex="1" parent="1">
          <mxGeometry x="354" y="550" width="120" height="60" as="geometry" />
        </mxCell>
        <mxCell id="0A3lsdpq9jtskfbA3jTb-4" value="sucursal" style="rounded=0;whiteSpace=wrap;html=1;" vertex="1" parent="1">
          <mxGeometry x="50" y="550" width="120" height="60" as="geometry" />
        </mxCell>
        <mxCell id="0A3lsdpq9jtskfbA3jTb-5" value="cuenta" style="rounded=0;whiteSpace=wrap;html=1;" vertex="1" parent="1">
          <mxGeometry x="640" y="550" width="120" height="60" as="geometry" />
        </mxCell>
        <mxCell id="0A3lsdpq9jtskfbA3jTb-6" value="organizacion" style="rounded=0;whiteSpace=wrap;html=1;" vertex="1" parent="1">
          <mxGeometry x="210" y="705" width="120" height="60" as="geometry" />
        </mxCell>
        <mxCell id="0A3lsdpq9jtskfbA3jTb-7" value="persona" style="rounded=0;whiteSpace=wrap;html=1;" vertex="1" parent="1">
          <mxGeometry x="505" y="705" width="120" height="60" as="geometry" />
        </mxCell>
        <mxCell id="0A3lsdpq9jtskfbA3jTb-8" value="empleado" style="rounded=0;whiteSpace=wrap;html=1;" vertex="1" parent="1">
          <mxGeometry x="50" y="380" width="120" height="60" as="geometry" />
        </mxCell>
        <mxCell id="0A3lsdpq9jtskfbA3jTb-9" value="pertenece" style="rhombus;whiteSpace=wrap;html=1;" vertex="1" parent="1">
          <mxGeometry x="210" y="540" width="110" height="80" as="geometry" />
        </mxCell>
        <mxCell id="0A3lsdpq9jtskfbA3jTb-10" value="tiene" style="rhombus;whiteSpace=wrap;html=1;" vertex="1" parent="1">
          <mxGeometry x="510" y="540" width="110" height="80" as="geometry" />
        </mxCell>
        <mxCell id="0A3lsdpq9jtskfbA3jTb-11" value="trabaja" style="rhombus;whiteSpace=wrap;html=1;" vertex="1" parent="1">
          <mxGeometry x="55" y="456" width="110" height="80" as="geometry" />
        </mxCell>
        <mxCell id="0A3lsdpq9jtskfbA3jTb-13" value="nombre" style="ellipse;whiteSpace=wrap;html=1;" vertex="1" parent="1">
          <mxGeometry x="330" y="470" width="60" height="40" as="geometry" />
        </mxCell>
        <mxCell id="0A3lsdpq9jtskfbA3jTb-14" value="direccion" style="ellipse;whiteSpace=wrap;html=1;" vertex="1" parent="1">
          <mxGeometry x="400" y="470" width="60" height="40" as="geometry" />
        </mxCell>
        <mxCell id="0A3lsdpq9jtskfbA3jTb-15" value="codigo" style="ellipse;whiteSpace=wrap;html=1;" vertex="1" parent="1">
          <mxGeometry x="474" y="470" width="60" height="40" as="geometry" />
        </mxCell>
        <mxCell id="0A3lsdpq9jtskfbA3jTb-17" value="" style="endArrow=none;html=1;rounded=0;exitX=0.5;exitY=0;exitDx=0;exitDy=0;entryX=0.5;entryY=1;entryDx=0;entryDy=0;" edge="1" parent="1" source="0A3lsdpq9jtskfbA3jTb-3" target="0A3lsdpq9jtskfbA3jTb-13">
          <mxGeometry width="50" height="50" relative="1" as="geometry">
            <mxPoint x="390" y="470" as="sourcePoint" />
            <mxPoint x="440" y="420" as="targetPoint" />
          </mxGeometry>
        </mxCell>
        <mxCell id="0A3lsdpq9jtskfbA3jTb-18" value="" style="endArrow=none;html=1;rounded=0;entryX=0.5;entryY=1;entryDx=0;entryDy=0;" edge="1" parent="1" target="0A3lsdpq9jtskfbA3jTb-14">
          <mxGeometry width="50" height="50" relative="1" as="geometry">
            <mxPoint x="410" y="550" as="sourcePoint" />
            <mxPoint x="370" y="520" as="targetPoint" />
          </mxGeometry>
        </mxCell>
        <mxCell id="0A3lsdpq9jtskfbA3jTb-19" value="" style="endArrow=none;html=1;rounded=0;exitX=0.5;exitY=0;exitDx=0;exitDy=0;entryX=0.5;entryY=1;entryDx=0;entryDy=0;" edge="1" parent="1" source="0A3lsdpq9jtskfbA3jTb-3" target="0A3lsdpq9jtskfbA3jTb-15">
          <mxGeometry width="50" height="50" relative="1" as="geometry">
            <mxPoint x="434" y="570" as="sourcePoint" />
            <mxPoint x="380" y="530" as="targetPoint" />
          </mxGeometry>
        </mxCell>
        <mxCell id="0A3lsdpq9jtskfbA3jTb-20" value="fecha de nacimiento" style="ellipse;whiteSpace=wrap;html=1;" vertex="1" parent="1">
          <mxGeometry x="660" y="690" width="80" height="40" as="geometry" />
        </mxCell>
        <mxCell id="0A3lsdpq9jtskfbA3jTb-21" value="genero" style="ellipse;whiteSpace=wrap;html=1;" vertex="1" parent="1">
          <mxGeometry x="670" y="750" width="60" height="40" as="geometry" />
        </mxCell>
        <mxCell id="0A3lsdpq9jtskfbA3jTb-22" value="" style="endArrow=none;html=1;rounded=0;exitX=1;exitY=0.5;exitDx=0;exitDy=0;entryX=0;entryY=0.5;entryDx=0;entryDy=0;" edge="1" parent="1" source="0A3lsdpq9jtskfbA3jTb-7" target="0A3lsdpq9jtskfbA3jTb-20">
          <mxGeometry width="50" height="50" relative="1" as="geometry">
            <mxPoint x="424" y="560" as="sourcePoint" />
            <mxPoint x="514" y="520" as="targetPoint" />
          </mxGeometry>
        </mxCell>
        <mxCell id="0A3lsdpq9jtskfbA3jTb-23" value="" style="endArrow=none;html=1;rounded=0;exitX=0;exitY=0.25;exitDx=0;exitDy=0;entryX=1;entryY=0.5;entryDx=0;entryDy=0;exitPerimeter=0;" edge="1" parent="1" source="0A3lsdpq9jtskfbA3jTb-21" target="0A3lsdpq9jtskfbA3jTb-7">
          <mxGeometry width="50" height="50" relative="1" as="geometry">
            <mxPoint x="434" y="570" as="sourcePoint" />
            <mxPoint x="524" y="530" as="targetPoint" />
          </mxGeometry>
        </mxCell>
        <mxCell id="0A3lsdpq9jtskfbA3jTb-24" value="tipo" style="ellipse;whiteSpace=wrap;html=1;" vertex="1" parent="1">
          <mxGeometry x="140" y="800" width="60" height="40" as="geometry" />
        </mxCell>
        <mxCell id="0A3lsdpq9jtskfbA3jTb-25" value="cantidad de empleados" style="ellipse;whiteSpace=wrap;html=1;" vertex="1" parent="1">
          <mxGeometry x="330" y="800" width="80" height="50" as="geometry" />
        </mxCell>
        <mxCell id="0A3lsdpq9jtskfbA3jTb-26" value="representante" style="ellipse;whiteSpace=wrap;html=1;" vertex="1" parent="1">
          <mxGeometry x="230" y="800" width="80" height="50" as="geometry" />
        </mxCell>
        <mxCell id="0A3lsdpq9jtskfbA3jTb-27" value="" style="endArrow=none;html=1;rounded=0;exitX=0.433;exitY=0.983;exitDx=0;exitDy=0;entryX=0.5;entryY=0;entryDx=0;entryDy=0;exitPerimeter=0;" edge="1" parent="1" source="0A3lsdpq9jtskfbA3jTb-6" target="0A3lsdpq9jtskfbA3jTb-24">
          <mxGeometry width="50" height="50" relative="1" as="geometry">
            <mxPoint x="424" y="560" as="sourcePoint" />
            <mxPoint x="370" y="520" as="targetPoint" />
          </mxGeometry>
        </mxCell>
        <mxCell id="0A3lsdpq9jtskfbA3jTb-28" value="" style="endArrow=none;html=1;rounded=0;exitX=0.5;exitY=1;exitDx=0;exitDy=0;entryX=0.5;entryY=0;entryDx=0;entryDy=0;" edge="1" parent="1" source="0A3lsdpq9jtskfbA3jTb-6" target="0A3lsdpq9jtskfbA3jTb-26">
          <mxGeometry width="50" height="50" relative="1" as="geometry">
            <mxPoint x="434" y="570" as="sourcePoint" />
            <mxPoint x="380" y="530" as="targetPoint" />
          </mxGeometry>
        </mxCell>
        <mxCell id="0A3lsdpq9jtskfbA3jTb-29" value="" style="endArrow=none;html=1;rounded=0;exitX=0.5;exitY=0;exitDx=0;exitDy=0;entryX=0.5;entryY=1;entryDx=0;entryDy=0;" edge="1" parent="1" source="0A3lsdpq9jtskfbA3jTb-25" target="0A3lsdpq9jtskfbA3jTb-6">
          <mxGeometry width="50" height="50" relative="1" as="geometry">
            <mxPoint x="444" y="580" as="sourcePoint" />
            <mxPoint x="390" y="540" as="targetPoint" />
          </mxGeometry>
        </mxCell>
        <mxCell id="0A3lsdpq9jtskfbA3jTb-30" value="numero" style="ellipse;whiteSpace=wrap;html=1;" vertex="1" parent="1">
          <mxGeometry x="625" y="440" width="60" height="40" as="geometry" />
        </mxCell>
        <mxCell id="0A3lsdpq9jtskfbA3jTb-31" value="tipo" style="ellipse;whiteSpace=wrap;html=1;" vertex="1" parent="1">
          <mxGeometry x="570" y="490" width="60" height="40" as="geometry" />
        </mxCell>
        <mxCell id="0A3lsdpq9jtskfbA3jTb-32" value="saldo actual" style="ellipse;whiteSpace=wrap;html=1;" vertex="1" parent="1">
          <mxGeometry x="700" y="440" width="60" height="40" as="geometry" />
        </mxCell>
        <mxCell id="0A3lsdpq9jtskfbA3jTb-33" value="saldo promedio" style="ellipse;whiteSpace=wrap;html=1;" vertex="1" parent="1">
          <mxGeometry x="750" y="490" width="70" height="50" as="geometry" />
        </mxCell>
        <mxCell id="0A3lsdpq9jtskfbA3jTb-34" value="" style="endArrow=none;html=1;rounded=0;exitX=0.5;exitY=0;exitDx=0;exitDy=0;entryX=0.5;entryY=1;entryDx=0;entryDy=0;" edge="1" parent="1" source="0A3lsdpq9jtskfbA3jTb-5" target="0A3lsdpq9jtskfbA3jTb-31">
          <mxGeometry width="50" height="50" relative="1" as="geometry">
            <mxPoint x="424" y="560" as="sourcePoint" />
            <mxPoint x="514" y="520" as="targetPoint" />
          </mxGeometry>
        </mxCell>
        <mxCell id="0A3lsdpq9jtskfbA3jTb-35" value="" style="endArrow=none;html=1;rounded=0;entryX=0.5;entryY=1;entryDx=0;entryDy=0;" edge="1" parent="1" target="0A3lsdpq9jtskfbA3jTb-30">
          <mxGeometry width="50" height="50" relative="1" as="geometry">
            <mxPoint x="700" y="550" as="sourcePoint" />
            <mxPoint x="524" y="530" as="targetPoint" />
          </mxGeometry>
        </mxCell>
        <mxCell id="0A3lsdpq9jtskfbA3jTb-36" value="" style="endArrow=none;html=1;rounded=0;exitX=0.5;exitY=0;exitDx=0;exitDy=0;entryX=0.5;entryY=1;entryDx=0;entryDy=0;" edge="1" parent="1" source="0A3lsdpq9jtskfbA3jTb-5" target="0A3lsdpq9jtskfbA3jTb-32">
          <mxGeometry width="50" height="50" relative="1" as="geometry">
            <mxPoint x="444" y="580" as="sourcePoint" />
            <mxPoint x="534" y="540" as="targetPoint" />
          </mxGeometry>
        </mxCell>
        <mxCell id="0A3lsdpq9jtskfbA3jTb-37" value="" style="endArrow=none;html=1;rounded=0;exitX=0.5;exitY=0;exitDx=0;exitDy=0;entryX=0.014;entryY=0.72;entryDx=0;entryDy=0;entryPerimeter=0;" edge="1" parent="1" source="0A3lsdpq9jtskfbA3jTb-5" target="0A3lsdpq9jtskfbA3jTb-33">
          <mxGeometry width="50" height="50" relative="1" as="geometry">
            <mxPoint x="454" y="590" as="sourcePoint" />
            <mxPoint x="544" y="550" as="targetPoint" />
          </mxGeometry>
        </mxCell>
        <mxCell id="0A3lsdpq9jtskfbA3jTb-38" value="" style="endArrow=none;html=1;rounded=0;exitX=0.5;exitY=0;exitDx=0;exitDy=0;entryX=1;entryY=1;entryDx=0;entryDy=0;" edge="1" parent="1" source="0A3lsdpq9jtskfbA3jTb-8" target="0A3lsdpq9jtskfbA3jTb-46">
          <mxGeometry width="50" height="50" relative="1" as="geometry">
            <mxPoint x="464" y="600" as="sourcePoint" />
            <mxPoint x="554" y="560" as="targetPoint" />
          </mxGeometry>
        </mxCell>
        <mxCell id="0A3lsdpq9jtskfbA3jTb-39" value="" style="endArrow=none;html=1;rounded=0;exitX=0.5;exitY=0;exitDx=0;exitDy=0;entryX=0.617;entryY=0.975;entryDx=0;entryDy=0;entryPerimeter=0;" edge="1" parent="1" source="0A3lsdpq9jtskfbA3jTb-8" target="0A3lsdpq9jtskfbA3jTb-44">
          <mxGeometry width="50" height="50" relative="1" as="geometry">
            <mxPoint x="474" y="610" as="sourcePoint" />
            <mxPoint x="564" y="570" as="targetPoint" />
          </mxGeometry>
        </mxCell>
        <mxCell id="0A3lsdpq9jtskfbA3jTb-40" value="" style="endArrow=none;html=1;rounded=0;exitX=0.5;exitY=0;exitDx=0;exitDy=0;entryX=0;entryY=1;entryDx=0;entryDy=0;" edge="1" parent="1" source="0A3lsdpq9jtskfbA3jTb-8" target="0A3lsdpq9jtskfbA3jTb-43">
          <mxGeometry width="50" height="50" relative="1" as="geometry">
            <mxPoint x="484" y="620" as="sourcePoint" />
            <mxPoint x="574" y="580" as="targetPoint" />
          </mxGeometry>
        </mxCell>
        <mxCell id="0A3lsdpq9jtskfbA3jTb-41" value="" style="endArrow=none;html=1;rounded=0;exitX=0.5;exitY=0;exitDx=0;exitDy=0;entryX=0.5;entryY=1;entryDx=0;entryDy=0;" edge="1" parent="1" source="0A3lsdpq9jtskfbA3jTb-8" target="0A3lsdpq9jtskfbA3jTb-45">
          <mxGeometry width="50" height="50" relative="1" as="geometry">
            <mxPoint x="494" y="630" as="sourcePoint" />
            <mxPoint x="584" y="590" as="targetPoint" />
          </mxGeometry>
        </mxCell>
        <mxCell id="0A3lsdpq9jtskfbA3jTb-43" value="fecha de nacimiento" style="ellipse;whiteSpace=wrap;html=1;" vertex="1" parent="1">
          <mxGeometry x="120" y="270" width="90" height="40" as="geometry" />
        </mxCell>
        <mxCell id="0A3lsdpq9jtskfbA3jTb-44" value="nombre" style="ellipse;whiteSpace=wrap;html=1;" vertex="1" parent="1">
          <mxGeometry x="50" y="270" width="60" height="40" as="geometry" />
        </mxCell>
        <mxCell id="0A3lsdpq9jtskfbA3jTb-45" value="genero" style="ellipse;whiteSpace=wrap;html=1;" vertex="1" parent="1">
          <mxGeometry x="150" y="320" width="60" height="40" as="geometry" />
        </mxCell>
        <mxCell id="0A3lsdpq9jtskfbA3jTb-46" value="codigo" style="ellipse;whiteSpace=wrap;html=1;" vertex="1" parent="1">
          <mxGeometry x="10" y="320" width="60" height="40" as="geometry" />
        </mxCell>
        <mxCell id="0A3lsdpq9jtskfbA3jTb-47" value="nombre" style="ellipse;whiteSpace=wrap;html=1;" vertex="1" parent="1">
          <mxGeometry x="110" y="705" width="60" height="40" as="geometry" />
        </mxCell>
        <mxCell id="0A3lsdpq9jtskfbA3jTb-48" value="nombre" style="ellipse;whiteSpace=wrap;html=1;" vertex="1" parent="1">
          <mxGeometry x="40" y="705" width="60" height="40" as="geometry" />
        </mxCell>
        <mxCell id="0A3lsdpq9jtskfbA3jTb-49" value="nombre" style="ellipse;whiteSpace=wrap;html=1;" vertex="1" parent="1">
          <mxGeometry x="135" y="645" width="60" height="40" as="geometry" />
        </mxCell>
        <mxCell id="0A3lsdpq9jtskfbA3jTb-50" value="nombre" style="ellipse;whiteSpace=wrap;html=1;" vertex="1" parent="1">
          <mxGeometry x="10" y="645" width="60" height="40" as="geometry" />
        </mxCell>
        <mxCell id="0A3lsdpq9jtskfbA3jTb-51" value="" style="endArrow=none;html=1;rounded=0;exitX=0.5;exitY=1;exitDx=0;exitDy=0;entryX=0.5;entryY=0;entryDx=0;entryDy=0;" edge="1" parent="1" source="0A3lsdpq9jtskfbA3jTb-8" target="0A3lsdpq9jtskfbA3jTb-11">
          <mxGeometry width="50" height="50" relative="1" as="geometry">
            <mxPoint x="424" y="560" as="sourcePoint" />
            <mxPoint x="370" y="520" as="targetPoint" />
          </mxGeometry>
        </mxCell>
        <mxCell id="0A3lsdpq9jtskfbA3jTb-52" value="" style="endArrow=none;html=1;rounded=0;exitX=0.5;exitY=0;exitDx=0;exitDy=0;entryX=0.5;entryY=1;entryDx=0;entryDy=0;" edge="1" parent="1" source="0A3lsdpq9jtskfbA3jTb-4" target="0A3lsdpq9jtskfbA3jTb-11">
          <mxGeometry width="50" height="50" relative="1" as="geometry">
            <mxPoint x="434" y="570" as="sourcePoint" />
            <mxPoint x="380" y="530" as="targetPoint" />
          </mxGeometry>
        </mxCell>
        <mxCell id="0A3lsdpq9jtskfbA3jTb-53" value="" style="endArrow=none;html=1;rounded=0;exitX=0;exitY=0.5;exitDx=0;exitDy=0;entryX=1;entryY=0.5;entryDx=0;entryDy=0;" edge="1" parent="1" source="0A3lsdpq9jtskfbA3jTb-9" target="0A3lsdpq9jtskfbA3jTb-4">
          <mxGeometry width="50" height="50" relative="1" as="geometry">
            <mxPoint x="444" y="580" as="sourcePoint" />
            <mxPoint x="390" y="540" as="targetPoint" />
          </mxGeometry>
        </mxCell>
        <mxCell id="0A3lsdpq9jtskfbA3jTb-54" value="" style="endArrow=none;html=1;rounded=0;exitX=0;exitY=0.5;exitDx=0;exitDy=0;entryX=1;entryY=0.5;entryDx=0;entryDy=0;" edge="1" parent="1" source="0A3lsdpq9jtskfbA3jTb-3" target="0A3lsdpq9jtskfbA3jTb-9">
          <mxGeometry width="50" height="50" relative="1" as="geometry">
            <mxPoint x="454" y="590" as="sourcePoint" />
            <mxPoint x="400" y="550" as="targetPoint" />
          </mxGeometry>
        </mxCell>
        <mxCell id="0A3lsdpq9jtskfbA3jTb-55" value="" style="endArrow=none;html=1;rounded=0;exitX=0;exitY=0.5;exitDx=0;exitDy=0;entryX=1;entryY=0.5;entryDx=0;entryDy=0;" edge="1" parent="1" source="0A3lsdpq9jtskfbA3jTb-10" target="0A3lsdpq9jtskfbA3jTb-3">
          <mxGeometry width="50" height="50" relative="1" as="geometry">
            <mxPoint x="464" y="600" as="sourcePoint" />
            <mxPoint x="410" y="560" as="targetPoint" />
          </mxGeometry>
        </mxCell>
        <mxCell id="0A3lsdpq9jtskfbA3jTb-56" value="" style="endArrow=none;html=1;rounded=0;exitX=1;exitY=0.5;exitDx=0;exitDy=0;entryX=0;entryY=0.5;entryDx=0;entryDy=0;" edge="1" parent="1" source="0A3lsdpq9jtskfbA3jTb-10" target="0A3lsdpq9jtskfbA3jTb-5">
          <mxGeometry width="50" height="50" relative="1" as="geometry">
            <mxPoint x="474" y="610" as="sourcePoint" />
            <mxPoint x="420" y="570" as="targetPoint" />
          </mxGeometry>
        </mxCell>
        <mxCell id="0A3lsdpq9jtskfbA3jTb-57" value="" style="endArrow=none;html=1;rounded=0;exitX=0.5;exitY=1;exitDx=0;exitDy=0;entryX=0.5;entryY=0;entryDx=0;entryDy=0;" edge="1" parent="1" source="0A3lsdpq9jtskfbA3jTb-4" target="0A3lsdpq9jtskfbA3jTb-50">
          <mxGeometry width="50" height="50" relative="1" as="geometry">
            <mxPoint x="484" y="620" as="sourcePoint" />
            <mxPoint x="430" y="580" as="targetPoint" />
          </mxGeometry>
        </mxCell>
        <mxCell id="0A3lsdpq9jtskfbA3jTb-58" value="" style="endArrow=none;html=1;rounded=0;exitX=0.5;exitY=0;exitDx=0;exitDy=0;entryX=0.5;entryY=1;entryDx=0;entryDy=0;" edge="1" parent="1" source="0A3lsdpq9jtskfbA3jTb-48" target="0A3lsdpq9jtskfbA3jTb-4">
          <mxGeometry width="50" height="50" relative="1" as="geometry">
            <mxPoint x="494" y="630" as="sourcePoint" />
            <mxPoint x="440" y="590" as="targetPoint" />
          </mxGeometry>
        </mxCell>
        <mxCell id="0A3lsdpq9jtskfbA3jTb-59" value="" style="endArrow=none;html=1;rounded=0;exitX=0.267;exitY=0.1;exitDx=0;exitDy=0;entryX=0.5;entryY=1;entryDx=0;entryDy=0;exitPerimeter=0;" edge="1" parent="1" source="0A3lsdpq9jtskfbA3jTb-47" target="0A3lsdpq9jtskfbA3jTb-4">
          <mxGeometry width="50" height="50" relative="1" as="geometry">
            <mxPoint x="504" y="640" as="sourcePoint" />
            <mxPoint x="450" y="600" as="targetPoint" />
          </mxGeometry>
        </mxCell>
        <mxCell id="0A3lsdpq9jtskfbA3jTb-60" value="" style="endArrow=none;html=1;rounded=0;exitX=0.5;exitY=0;exitDx=0;exitDy=0;" edge="1" parent="1" source="0A3lsdpq9jtskfbA3jTb-49">
          <mxGeometry width="50" height="50" relative="1" as="geometry">
            <mxPoint x="514" y="650" as="sourcePoint" />
            <mxPoint x="110" y="610" as="targetPoint" />
          </mxGeometry>
        </mxCell>
        <mxCell id="0A3lsdpq9jtskfbA3jTb-62" value="" style="triangle;whiteSpace=wrap;html=1;direction=south;" vertex="1" parent="1">
          <mxGeometry x="374" y="660" width="80" height="60" as="geometry" />
        </mxCell>
        <mxCell id="0A3lsdpq9jtskfbA3jTb-63" value="" style="endArrow=none;html=1;rounded=0;exitX=0;exitY=0.5;exitDx=0;exitDy=0;entryX=0.5;entryY=1;entryDx=0;entryDy=0;" edge="1" parent="1" source="0A3lsdpq9jtskfbA3jTb-62" target="0A3lsdpq9jtskfbA3jTb-3">
          <mxGeometry width="50" height="50" relative="1" as="geometry">
            <mxPoint x="424" y="560" as="sourcePoint" />
            <mxPoint x="370" y="520" as="targetPoint" />
          </mxGeometry>
        </mxCell>
        <mxCell id="0A3lsdpq9jtskfbA3jTb-64" value="" style="endArrow=none;html=1;rounded=0;exitX=0.5;exitY=1;exitDx=0;exitDy=0;entryX=1;entryY=0;entryDx=0;entryDy=0;" edge="1" parent="1" source="0A3lsdpq9jtskfbA3jTb-62" target="0A3lsdpq9jtskfbA3jTb-6">
          <mxGeometry width="50" height="50" relative="1" as="geometry">
            <mxPoint x="434" y="570" as="sourcePoint" />
            <mxPoint x="380" y="530" as="targetPoint" />
          </mxGeometry>
        </mxCell>
        <mxCell id="0A3lsdpq9jtskfbA3jTb-65" value="" style="endArrow=none;html=1;rounded=0;exitX=0;exitY=0;exitDx=0;exitDy=0;entryX=0.5;entryY=0;entryDx=0;entryDy=0;" edge="1" parent="1" source="0A3lsdpq9jtskfbA3jTb-7" target="0A3lsdpq9jtskfbA3jTb-62">
          <mxGeometry width="50" height="50" relative="1" as="geometry">
            <mxPoint x="444" y="580" as="sourcePoint" />
            <mxPoint x="390" y="540" as="targetPoint" />
          </mxGeometry>
        </mxCell>
        <mxCell id="0A3lsdpq9jtskfbA3jTb-67" value="1:N" style="text;html=1;strokeColor=none;fillColor=none;align=center;verticalAlign=middle;whiteSpace=wrap;rounded=0;" vertex="1" parent="1">
          <mxGeometry x="535" y="620" width="60" height="30" as="geometry" />
        </mxCell>
        <mxCell id="0A3lsdpq9jtskfbA3jTb-69" value="1:N" style="text;html=1;strokeColor=none;fillColor=none;align=center;verticalAlign=middle;whiteSpace=wrap;rounded=0;" vertex="1" parent="1">
          <mxGeometry x="235" y="620" width="60" height="30" as="geometry" />
        </mxCell>
        <mxCell id="0A3lsdpq9jtskfbA3jTb-70" value="1:N" style="text;html=1;strokeColor=none;fillColor=none;align=center;verticalAlign=middle;whiteSpace=wrap;rounded=0;" vertex="1" parent="1">
          <mxGeometry x="150" y="481" width="60" height="30" as="geometry" />
        </mxCell>
        <mxCell id="0A3lsdpq9jtskfbA3jTb-71" value="Text" style="text;html=1;strokeColor=none;fillColor=none;align=center;verticalAlign=middle;whiteSpace=wrap;rounded=0;" vertex="1" parent="1">
          <mxGeometry x="380" y="180" width="60" height="30" as="geometry" />
        </mxCell>
        <mxCell id="0A3lsdpq9jtskfbA3jTb-72" value="&lt;br&gt;&lt;br&gt;Ejercicio 2.&lt;br&gt;&lt;br&gt;Entidad:&lt;br&gt;&lt;br&gt;Usuario&lt;br&gt;Libro&lt;br&gt;&lt;br&gt;Editorial&lt;br&gt;Autor" style="text;html=1;strokeColor=none;fillColor=none;spacing=5;spacingTop=-20;whiteSpace=wrap;overflow=hidden;rounded=0;" vertex="1" parent="1">
          <mxGeometry x="40" y="1220" width="190" height="160" as="geometry" />
        </mxCell>
        <mxCell id="0A3lsdpq9jtskfbA3jTb-73" value="&lt;br&gt;&lt;br&gt;.&lt;br&gt;&lt;br&gt;Atributos:&lt;br&gt;&lt;br&gt;carnet, nombre, direccion&lt;br&gt;codigo, titulo, # paginas, clase, editorial" style="text;html=1;strokeColor=none;fillColor=none;spacing=5;spacingTop=-20;whiteSpace=wrap;overflow=hidden;rounded=0;" vertex="1" parent="1">
          <mxGeometry x="130" y="1220" width="190" height="120" as="geometry" />
        </mxCell>
        <mxCell id="0A3lsdpq9jtskfbA3jTb-74" value="usuario" style="rounded=0;whiteSpace=wrap;html=1;" vertex="1" parent="1">
          <mxGeometry x="95" y="1510" width="120" height="60" as="geometry" />
        </mxCell>
        <mxCell id="0A3lsdpq9jtskfbA3jTb-75" value="libro" style="rounded=0;whiteSpace=wrap;html=1;" vertex="1" parent="1">
          <mxGeometry x="425" y="1510" width="120" height="60" as="geometry" />
        </mxCell>
        <mxCell id="0A3lsdpq9jtskfbA3jTb-76" value="presta" style="rhombus;whiteSpace=wrap;html=1;" vertex="1" parent="1">
          <mxGeometry x="263" y="1500" width="106" height="80" as="geometry" />
        </mxCell>
        <mxCell id="0A3lsdpq9jtskfbA3jTb-77" value="carnet" style="ellipse;whiteSpace=wrap;html=1;" vertex="1" parent="1">
          <mxGeometry x="25" y="1450" width="60" height="30" as="geometry" />
        </mxCell>
        <mxCell id="0A3lsdpq9jtskfbA3jTb-78" value="nombre" style="ellipse;whiteSpace=wrap;html=1;" vertex="1" parent="1">
          <mxGeometry x="85" y="1420" width="60" height="30" as="geometry" />
        </mxCell>
        <mxCell id="0A3lsdpq9jtskfbA3jTb-79" value="direccion" style="ellipse;whiteSpace=wrap;html=1;" vertex="1" parent="1">
          <mxGeometry x="155" y="1450" width="60" height="30" as="geometry" />
        </mxCell>
        <mxCell id="0A3lsdpq9jtskfbA3jTb-80" value="codigo" style="ellipse;whiteSpace=wrap;html=1;" vertex="1" parent="1">
          <mxGeometry x="469" y="1420" width="60" height="30" as="geometry" />
        </mxCell>
        <mxCell id="0A3lsdpq9jtskfbA3jTb-81" value="editorial" style="ellipse;whiteSpace=wrap;html=1;" vertex="1" parent="1">
          <mxGeometry x="655" y="1530" width="60" height="30" as="geometry" />
        </mxCell>
        <mxCell id="0A3lsdpq9jtskfbA3jTb-82" value="clase" style="ellipse;whiteSpace=wrap;html=1;" vertex="1" parent="1">
          <mxGeometry x="645" y="1480" width="60" height="30" as="geometry" />
        </mxCell>
        <mxCell id="0A3lsdpq9jtskfbA3jTb-83" value="# paginas" style="ellipse;whiteSpace=wrap;html=1;" vertex="1" parent="1">
          <mxGeometry x="615" y="1430" width="60" height="30" as="geometry" />
        </mxCell>
        <mxCell id="0A3lsdpq9jtskfbA3jTb-84" value="titulo" style="ellipse;whiteSpace=wrap;html=1;" vertex="1" parent="1">
          <mxGeometry x="545" y="1410" width="60" height="30" as="geometry" />
        </mxCell>
        <mxCell id="0A3lsdpq9jtskfbA3jTb-85" value="" style="endArrow=none;html=1;rounded=0;exitX=0.5;exitY=0;exitDx=0;exitDy=0;entryX=1;entryY=0.5;entryDx=0;entryDy=0;" edge="1" parent="1" source="0A3lsdpq9jtskfbA3jTb-74" target="0A3lsdpq9jtskfbA3jTb-77">
          <mxGeometry width="50" height="50" relative="1" as="geometry">
            <mxPoint x="385" y="1440" as="sourcePoint" />
            <mxPoint x="435" y="1390" as="targetPoint" />
          </mxGeometry>
        </mxCell>
        <mxCell id="0A3lsdpq9jtskfbA3jTb-87" value="" style="endArrow=none;html=1;rounded=0;entryX=0.667;entryY=1;entryDx=0;entryDy=0;entryPerimeter=0;" edge="1" parent="1" target="0A3lsdpq9jtskfbA3jTb-78">
          <mxGeometry width="50" height="50" relative="1" as="geometry">
            <mxPoint x="155" y="1510" as="sourcePoint" />
            <mxPoint x="95" y="1475" as="targetPoint" />
          </mxGeometry>
        </mxCell>
        <mxCell id="0A3lsdpq9jtskfbA3jTb-88" value="" style="endArrow=none;html=1;rounded=0;exitX=0.5;exitY=0;exitDx=0;exitDy=0;entryX=0.5;entryY=1;entryDx=0;entryDy=0;" edge="1" parent="1" source="0A3lsdpq9jtskfbA3jTb-74" target="0A3lsdpq9jtskfbA3jTb-79">
          <mxGeometry width="50" height="50" relative="1" as="geometry">
            <mxPoint x="175" y="1530" as="sourcePoint" />
            <mxPoint x="105" y="1485" as="targetPoint" />
          </mxGeometry>
        </mxCell>
        <mxCell id="0A3lsdpq9jtskfbA3jTb-89" value="" style="endArrow=none;html=1;rounded=0;exitX=0;exitY=0.5;exitDx=0;exitDy=0;entryX=1;entryY=0.25;entryDx=0;entryDy=0;" edge="1" parent="1" source="0A3lsdpq9jtskfbA3jTb-81" target="0A3lsdpq9jtskfbA3jTb-75">
          <mxGeometry width="50" height="50" relative="1" as="geometry">
            <mxPoint x="185" y="1540" as="sourcePoint" />
            <mxPoint x="115" y="1495" as="targetPoint" />
          </mxGeometry>
        </mxCell>
        <mxCell id="0A3lsdpq9jtskfbA3jTb-90" value="" style="endArrow=none;html=1;rounded=0;exitX=0;exitY=0.5;exitDx=0;exitDy=0;entryX=1;entryY=0.25;entryDx=0;entryDy=0;" edge="1" parent="1" source="0A3lsdpq9jtskfbA3jTb-82" target="0A3lsdpq9jtskfbA3jTb-75">
          <mxGeometry width="50" height="50" relative="1" as="geometry">
            <mxPoint x="195" y="1550" as="sourcePoint" />
            <mxPoint x="125" y="1505" as="targetPoint" />
          </mxGeometry>
        </mxCell>
        <mxCell id="0A3lsdpq9jtskfbA3jTb-91" value="" style="endArrow=none;html=1;rounded=0;exitX=0;exitY=1;exitDx=0;exitDy=0;" edge="1" parent="1" source="0A3lsdpq9jtskfbA3jTb-83">
          <mxGeometry width="50" height="50" relative="1" as="geometry">
            <mxPoint x="605" y="1460" as="sourcePoint" />
            <mxPoint x="485" y="1510" as="targetPoint" />
          </mxGeometry>
        </mxCell>
        <mxCell id="0A3lsdpq9jtskfbA3jTb-92" value="" style="endArrow=none;html=1;rounded=0;entryX=0.5;entryY=0;entryDx=0;entryDy=0;" edge="1" parent="1" target="0A3lsdpq9jtskfbA3jTb-75">
          <mxGeometry width="50" height="50" relative="1" as="geometry">
            <mxPoint x="565" y="1440" as="sourcePoint" />
            <mxPoint x="145" y="1525" as="targetPoint" />
          </mxGeometry>
        </mxCell>
        <mxCell id="0A3lsdpq9jtskfbA3jTb-93" value="" style="endArrow=none;html=1;rounded=0;exitX=0.5;exitY=1;exitDx=0;exitDy=0;entryX=0.5;entryY=0;entryDx=0;entryDy=0;" edge="1" parent="1" source="0A3lsdpq9jtskfbA3jTb-80" target="0A3lsdpq9jtskfbA3jTb-75">
          <mxGeometry width="50" height="50" relative="1" as="geometry">
            <mxPoint x="225" y="1580" as="sourcePoint" />
            <mxPoint x="155" y="1535" as="targetPoint" />
          </mxGeometry>
        </mxCell>
        <mxCell id="0A3lsdpq9jtskfbA3jTb-94" value="" style="endArrow=none;html=1;rounded=0;exitX=0;exitY=0.5;exitDx=0;exitDy=0;entryX=1;entryY=0.5;entryDx=0;entryDy=0;" edge="1" parent="1" source="0A3lsdpq9jtskfbA3jTb-76" target="0A3lsdpq9jtskfbA3jTb-74">
          <mxGeometry width="50" height="50" relative="1" as="geometry">
            <mxPoint x="235" y="1590" as="sourcePoint" />
            <mxPoint x="165" y="1545" as="targetPoint" />
          </mxGeometry>
        </mxCell>
        <mxCell id="0A3lsdpq9jtskfbA3jTb-95" value="" style="endArrow=none;html=1;rounded=0;exitX=1;exitY=0.5;exitDx=0;exitDy=0;entryX=0;entryY=0.5;entryDx=0;entryDy=0;" edge="1" parent="1" source="0A3lsdpq9jtskfbA3jTb-76" target="0A3lsdpq9jtskfbA3jTb-75">
          <mxGeometry width="50" height="50" relative="1" as="geometry">
            <mxPoint x="245" y="1600" as="sourcePoint" />
            <mxPoint x="175" y="1555" as="targetPoint" />
          </mxGeometry>
        </mxCell>
        <mxCell id="0A3lsdpq9jtskfbA3jTb-96" value="usuario_carnet" style="ellipse;whiteSpace=wrap;html=1;" vertex="1" parent="1">
          <mxGeometry x="325" y="1400" width="100" height="40" as="geometry" />
        </mxCell>
        <mxCell id="0A3lsdpq9jtskfbA3jTb-97" value="fecha_devolucion" style="ellipse;whiteSpace=wrap;html=1;" vertex="1" parent="1">
          <mxGeometry x="205" y="1400" width="100" height="40" as="geometry" />
        </mxCell>
        <mxCell id="0A3lsdpq9jtskfbA3jTb-98" value="libro_codigo" style="ellipse;whiteSpace=wrap;html=1;" vertex="1" parent="1">
          <mxGeometry x="335" y="1455" width="80" height="40" as="geometry" />
        </mxCell>
        <mxCell id="0A3lsdpq9jtskfbA3jTb-99" value="fecha_inicio" style="ellipse;whiteSpace=wrap;html=1;" vertex="1" parent="1">
          <mxGeometry x="225" y="1460" width="70" height="30" as="geometry" />
        </mxCell>
        <mxCell id="0A3lsdpq9jtskfbA3jTb-100" value="" style="endArrow=none;html=1;rounded=0;exitX=0.5;exitY=0;exitDx=0;exitDy=0;entryX=0;entryY=1;entryDx=0;entryDy=0;" edge="1" parent="1" source="0A3lsdpq9jtskfbA3jTb-76" target="0A3lsdpq9jtskfbA3jTb-96">
          <mxGeometry width="50" height="50" relative="1" as="geometry">
            <mxPoint x="165" y="1520" as="sourcePoint" />
            <mxPoint x="95" y="1475" as="targetPoint" />
          </mxGeometry>
        </mxCell>
        <mxCell id="0A3lsdpq9jtskfbA3jTb-101" value="" style="endArrow=none;html=1;rounded=0;exitX=0.5;exitY=0;exitDx=0;exitDy=0;entryX=1;entryY=1;entryDx=0;entryDy=0;" edge="1" parent="1" source="0A3lsdpq9jtskfbA3jTb-76" target="0A3lsdpq9jtskfbA3jTb-97">
          <mxGeometry width="50" height="50" relative="1" as="geometry">
            <mxPoint x="175" y="1530" as="sourcePoint" />
            <mxPoint x="315" y="1440" as="targetPoint" />
          </mxGeometry>
        </mxCell>
        <mxCell id="0A3lsdpq9jtskfbA3jTb-102" value="" style="endArrow=none;html=1;rounded=0;exitX=0.5;exitY=0;exitDx=0;exitDy=0;entryX=0;entryY=1;entryDx=0;entryDy=0;" edge="1" parent="1" source="0A3lsdpq9jtskfbA3jTb-76" target="0A3lsdpq9jtskfbA3jTb-98">
          <mxGeometry width="50" height="50" relative="1" as="geometry">
            <mxPoint x="185" y="1540" as="sourcePoint" />
            <mxPoint x="115" y="1495" as="targetPoint" />
          </mxGeometry>
        </mxCell>
        <mxCell id="0A3lsdpq9jtskfbA3jTb-103" value="" style="endArrow=none;html=1;rounded=0;exitX=0.5;exitY=0;exitDx=0;exitDy=0;entryX=0.743;entryY=0.967;entryDx=0;entryDy=0;entryPerimeter=0;" edge="1" parent="1" source="0A3lsdpq9jtskfbA3jTb-76" target="0A3lsdpq9jtskfbA3jTb-99">
          <mxGeometry width="50" height="50" relative="1" as="geometry">
            <mxPoint x="195" y="1550" as="sourcePoint" />
            <mxPoint x="125" y="1505" as="targetPoint" />
          </mxGeometry>
        </mxCell>
        <mxCell id="0A3lsdpq9jtskfbA3jTb-104" value="tiene" style="rhombus;whiteSpace=wrap;html=1;" vertex="1" parent="1">
          <mxGeometry x="432" y="1600" width="106" height="80" as="geometry" />
        </mxCell>
        <mxCell id="0A3lsdpq9jtskfbA3jTb-105" value="editorial" style="rounded=0;whiteSpace=wrap;html=1;" vertex="1" parent="1">
          <mxGeometry x="270" y="1610" width="120" height="60" as="geometry" />
        </mxCell>
        <mxCell id="0A3lsdpq9jtskfbA3jTb-106" value="autor" style="rounded=0;whiteSpace=wrap;html=1;" vertex="1" parent="1">
          <mxGeometry x="580" y="1610" width="120" height="60" as="geometry" />
        </mxCell>
        <mxCell id="0A3lsdpq9jtskfbA3jTb-107" value="" style="endArrow=none;html=1;rounded=0;exitX=0.5;exitY=1;exitDx=0;exitDy=0;entryX=0.5;entryY=0;entryDx=0;entryDy=0;" edge="1" parent="1" source="0A3lsdpq9jtskfbA3jTb-75" target="0A3lsdpq9jtskfbA3jTb-104">
          <mxGeometry width="50" height="50" relative="1" as="geometry">
            <mxPoint x="326" y="1510" as="sourcePoint" />
            <mxPoint x="350" y="1444" as="targetPoint" />
          </mxGeometry>
        </mxCell>
        <mxCell id="0A3lsdpq9jtskfbA3jTb-108" value="" style="endArrow=none;html=1;rounded=0;exitX=1;exitY=0.5;exitDx=0;exitDy=0;entryX=0;entryY=0.5;entryDx=0;entryDy=0;" edge="1" parent="1" source="0A3lsdpq9jtskfbA3jTb-105" target="0A3lsdpq9jtskfbA3jTb-104">
          <mxGeometry width="50" height="50" relative="1" as="geometry">
            <mxPoint x="336" y="1520" as="sourcePoint" />
            <mxPoint x="360" y="1454" as="targetPoint" />
          </mxGeometry>
        </mxCell>
        <mxCell id="0A3lsdpq9jtskfbA3jTb-109" value="" style="endArrow=none;html=1;rounded=0;exitX=1;exitY=0.5;exitDx=0;exitDy=0;entryX=0;entryY=0.5;entryDx=0;entryDy=0;" edge="1" parent="1" source="0A3lsdpq9jtskfbA3jTb-104" target="0A3lsdpq9jtskfbA3jTb-106">
          <mxGeometry width="50" height="50" relative="1" as="geometry">
            <mxPoint x="346" y="1530" as="sourcePoint" />
            <mxPoint x="370" y="1464" as="targetPoint" />
          </mxGeometry>
        </mxCell>
        <mxCell id="0A3lsdpq9jtskfbA3jTb-110" value="1:N" style="text;html=1;strokeColor=none;fillColor=none;align=center;verticalAlign=middle;whiteSpace=wrap;rounded=0;" vertex="1" parent="1">
          <mxGeometry x="286" y="1575" width="60" height="30" as="geometry" />
        </mxCell>
        <mxCell id="0A3lsdpq9jtskfbA3jTb-111" value="1:N" style="text;html=1;strokeColor=none;fillColor=none;align=center;verticalAlign=middle;whiteSpace=wrap;rounded=0;" vertex="1" parent="1">
          <mxGeometry x="390" y="1605" width="60" height="30" as="geometry" />
        </mxCell>
        <mxCell id="0A3lsdpq9jtskfbA3jTb-113" value="N:M" style="text;html=1;strokeColor=none;fillColor=none;align=center;verticalAlign=middle;whiteSpace=wrap;rounded=0;" vertex="1" parent="1">
          <mxGeometry x="520" y="1610" width="60" height="30" as="geometry" />
        </mxCell>
        <mxCell id="0A3lsdpq9jtskfbA3jTb-114" value="&lt;br&gt;&lt;br&gt;Ejercicio 3.&lt;br&gt;&lt;br&gt;Entidad:&lt;br&gt;&lt;br&gt;cliente&lt;br&gt;video&lt;br&gt;director&lt;br&gt;premio&lt;br&gt;sancion" style="text;html=1;strokeColor=none;fillColor=none;spacing=5;spacingTop=-20;whiteSpace=wrap;overflow=hidden;rounded=0;" vertex="1" parent="1">
          <mxGeometry x="45" y="1720" width="190" height="160" as="geometry" />
        </mxCell>
        <mxCell id="0A3lsdpq9jtskfbA3jTb-115" value="&lt;br&gt;&lt;br&gt;.&lt;br&gt;&lt;br&gt;Atributos:&lt;br&gt;&lt;br&gt;codigo, nombre, direccion, correo ele.&amp;nbsp;&lt;br&gt;codigo, titulo, idioma, duracion, formato&lt;br&gt;nombre, nacionalidad&lt;br&gt;codigo, descripcion&lt;br&gt;codigo, descripcion" style="text;html=1;strokeColor=none;fillColor=none;spacing=5;spacingTop=-20;whiteSpace=wrap;overflow=hidden;rounded=0;" vertex="1" parent="1">
          <mxGeometry x="130" y="1720" width="220" height="160" as="geometry" />
        </mxCell>
        <mxCell id="0A3lsdpq9jtskfbA3jTb-116" value="cliente" style="rounded=0;whiteSpace=wrap;html=1;" vertex="1" parent="1">
          <mxGeometry x="145" y="2060" width="110" height="50" as="geometry" />
        </mxCell>
        <mxCell id="0A3lsdpq9jtskfbA3jTb-117" value="video" style="rounded=0;whiteSpace=wrap;html=1;" vertex="1" parent="1">
          <mxGeometry x="385" y="2060" width="110" height="50" as="geometry" />
        </mxCell>
        <mxCell id="0A3lsdpq9jtskfbA3jTb-118" value="director" style="rounded=0;whiteSpace=wrap;html=1;" vertex="1" parent="1">
          <mxGeometry x="394" y="2210" width="110" height="50" as="geometry" />
        </mxCell>
        <mxCell id="0A3lsdpq9jtskfbA3jTb-119" value="premio" style="rounded=0;whiteSpace=wrap;html=1;" vertex="1" parent="1">
          <mxGeometry x="145" y="2210" width="110" height="50" as="geometry" />
        </mxCell>
        <mxCell id="0A3lsdpq9jtskfbA3jTb-120" value="sancion" style="rounded=0;whiteSpace=wrap;html=1;" vertex="1" parent="1">
          <mxGeometry x="145" y="1930" width="110" height="50" as="geometry" />
        </mxCell>
        <mxCell id="0A3lsdpq9jtskfbA3jTb-121" value="alquila" style="rhombus;whiteSpace=wrap;html=1;" vertex="1" parent="1">
          <mxGeometry x="280" y="2060" width="80" height="50" as="geometry" />
        </mxCell>
        <mxCell id="0A3lsdpq9jtskfbA3jTb-122" value="obtiene" style="rhombus;whiteSpace=wrap;html=1;" vertex="1" parent="1">
          <mxGeometry x="160" y="2000" width="80" height="50" as="geometry" />
        </mxCell>
        <mxCell id="0A3lsdpq9jtskfbA3jTb-123" value="obtiene" style="rhombus;whiteSpace=wrap;html=1;" vertex="1" parent="1">
          <mxGeometry x="160" y="2140" width="80" height="50" as="geometry" />
        </mxCell>
        <mxCell id="0A3lsdpq9jtskfbA3jTb-124" value="dirige" style="rhombus;whiteSpace=wrap;html=1;" vertex="1" parent="1">
          <mxGeometry x="400" y="2140" width="80" height="50" as="geometry" />
        </mxCell>
        <mxCell id="0A3lsdpq9jtskfbA3jTb-125" value="" style="endArrow=none;html=1;rounded=0;exitX=0.5;exitY=0;exitDx=0;exitDy=0;" edge="1" parent="1" source="0A3lsdpq9jtskfbA3jTb-122" target="0A3lsdpq9jtskfbA3jTb-120">
          <mxGeometry width="50" height="50" relative="1" as="geometry">
            <mxPoint x="465" y="2120" as="sourcePoint" />
            <mxPoint x="515" y="2070" as="targetPoint" />
          </mxGeometry>
        </mxCell>
        <mxCell id="0A3lsdpq9jtskfbA3jTb-127" value="" style="endArrow=none;html=1;rounded=0;exitX=0.5;exitY=0;exitDx=0;exitDy=0;entryX=0.5;entryY=1;entryDx=0;entryDy=0;" edge="1" parent="1" source="0A3lsdpq9jtskfbA3jTb-116" target="0A3lsdpq9jtskfbA3jTb-122">
          <mxGeometry width="50" height="50" relative="1" as="geometry">
            <mxPoint x="210" y="2010" as="sourcePoint" />
            <mxPoint x="210" y="1990" as="targetPoint" />
          </mxGeometry>
        </mxCell>
        <mxCell id="0A3lsdpq9jtskfbA3jTb-128" value="" style="endArrow=none;html=1;rounded=0;exitX=0.5;exitY=0;exitDx=0;exitDy=0;entryX=0.5;entryY=1;entryDx=0;entryDy=0;" edge="1" parent="1" source="0A3lsdpq9jtskfbA3jTb-123" target="0A3lsdpq9jtskfbA3jTb-116">
          <mxGeometry width="50" height="50" relative="1" as="geometry">
            <mxPoint x="220" y="2020" as="sourcePoint" />
            <mxPoint x="220" y="2000" as="targetPoint" />
          </mxGeometry>
        </mxCell>
        <mxCell id="0A3lsdpq9jtskfbA3jTb-129" value="" style="endArrow=none;html=1;rounded=0;exitX=0.5;exitY=1;exitDx=0;exitDy=0;entryX=0.5;entryY=0;entryDx=0;entryDy=0;" edge="1" parent="1" source="0A3lsdpq9jtskfbA3jTb-123" target="0A3lsdpq9jtskfbA3jTb-119">
          <mxGeometry width="50" height="50" relative="1" as="geometry">
            <mxPoint x="230" y="2030" as="sourcePoint" />
            <mxPoint x="230" y="2010" as="targetPoint" />
          </mxGeometry>
        </mxCell>
        <mxCell id="0A3lsdpq9jtskfbA3jTb-130" value="" style="endArrow=none;html=1;rounded=0;exitX=0;exitY=0.5;exitDx=0;exitDy=0;entryX=1;entryY=0.5;entryDx=0;entryDy=0;" edge="1" parent="1" source="0A3lsdpq9jtskfbA3jTb-121" target="0A3lsdpq9jtskfbA3jTb-116">
          <mxGeometry width="50" height="50" relative="1" as="geometry">
            <mxPoint x="240" y="2040" as="sourcePoint" />
            <mxPoint x="240" y="2020" as="targetPoint" />
          </mxGeometry>
        </mxCell>
        <mxCell id="0A3lsdpq9jtskfbA3jTb-131" value="" style="endArrow=none;html=1;rounded=0;exitX=0;exitY=0.5;exitDx=0;exitDy=0;entryX=1;entryY=0.5;entryDx=0;entryDy=0;" edge="1" parent="1" source="0A3lsdpq9jtskfbA3jTb-117" target="0A3lsdpq9jtskfbA3jTb-121">
          <mxGeometry width="50" height="50" relative="1" as="geometry">
            <mxPoint x="250" y="2050" as="sourcePoint" />
            <mxPoint x="250" y="2030" as="targetPoint" />
          </mxGeometry>
        </mxCell>
        <mxCell id="0A3lsdpq9jtskfbA3jTb-132" value="" style="endArrow=none;html=1;rounded=0;exitX=0.5;exitY=0;exitDx=0;exitDy=0;entryX=0.5;entryY=1;entryDx=0;entryDy=0;" edge="1" parent="1" source="0A3lsdpq9jtskfbA3jTb-124" target="0A3lsdpq9jtskfbA3jTb-117">
          <mxGeometry width="50" height="50" relative="1" as="geometry">
            <mxPoint x="260" y="2060" as="sourcePoint" />
            <mxPoint x="260" y="2040" as="targetPoint" />
          </mxGeometry>
        </mxCell>
        <mxCell id="0A3lsdpq9jtskfbA3jTb-133" value="" style="endArrow=none;html=1;rounded=0;exitX=0.418;exitY=-0.06;exitDx=0;exitDy=0;exitPerimeter=0;entryX=0.5;entryY=1;entryDx=0;entryDy=0;" edge="1" parent="1" source="0A3lsdpq9jtskfbA3jTb-118" target="0A3lsdpq9jtskfbA3jTb-124">
          <mxGeometry width="50" height="50" relative="1" as="geometry">
            <mxPoint x="270" y="2070" as="sourcePoint" />
            <mxPoint x="270" y="2050" as="targetPoint" />
          </mxGeometry>
        </mxCell>
        <mxCell id="0A3lsdpq9jtskfbA3jTb-134" value="codigo" style="ellipse;whiteSpace=wrap;html=1;" vertex="1" parent="1">
          <mxGeometry x="55" y="2010" width="60" height="30" as="geometry" />
        </mxCell>
        <mxCell id="0A3lsdpq9jtskfbA3jTb-136" value="nombre" style="ellipse;whiteSpace=wrap;html=1;" vertex="1" parent="1">
          <mxGeometry x="55" y="2050" width="60" height="30" as="geometry" />
        </mxCell>
        <mxCell id="0A3lsdpq9jtskfbA3jTb-137" value="direccion" style="ellipse;whiteSpace=wrap;html=1;" vertex="1" parent="1">
          <mxGeometry x="55" y="2090" width="60" height="30" as="geometry" />
        </mxCell>
        <mxCell id="0A3lsdpq9jtskfbA3jTb-138" value="correo" style="ellipse;whiteSpace=wrap;html=1;" vertex="1" parent="1">
          <mxGeometry x="55" y="2130" width="60" height="30" as="geometry" />
        </mxCell>
        <mxCell id="0A3lsdpq9jtskfbA3jTb-139" value="formato" style="ellipse;whiteSpace=wrap;html=1;" vertex="1" parent="1">
          <mxGeometry x="535" y="2100" width="60" height="30" as="geometry" />
        </mxCell>
        <mxCell id="0A3lsdpq9jtskfbA3jTb-140" value="duracion" style="ellipse;whiteSpace=wrap;html=1;" vertex="1" parent="1">
          <mxGeometry x="535" y="2060" width="60" height="30" as="geometry" />
        </mxCell>
        <mxCell id="0A3lsdpq9jtskfbA3jTb-141" value="idioma" style="ellipse;whiteSpace=wrap;html=1;" vertex="1" parent="1">
          <mxGeometry x="520" y="2020" width="60" height="30" as="geometry" />
        </mxCell>
        <mxCell id="0A3lsdpq9jtskfbA3jTb-142" value="titulo" style="ellipse;whiteSpace=wrap;html=1;" vertex="1" parent="1">
          <mxGeometry x="444" y="2000" width="60" height="30" as="geometry" />
        </mxCell>
        <mxCell id="0A3lsdpq9jtskfbA3jTb-143" value="codigo" style="ellipse;whiteSpace=wrap;html=1;" vertex="1" parent="1">
          <mxGeometry x="369" y="2000" width="60" height="30" as="geometry" />
        </mxCell>
        <mxCell id="0A3lsdpq9jtskfbA3jTb-144" value="nombre" style="ellipse;whiteSpace=wrap;html=1;" vertex="1" parent="1">
          <mxGeometry x="544" y="2200" width="60" height="30" as="geometry" />
        </mxCell>
        <mxCell id="0A3lsdpq9jtskfbA3jTb-145" value="nacionalidad" style="ellipse;whiteSpace=wrap;html=1;" vertex="1" parent="1">
          <mxGeometry x="544" y="2260" width="81" height="30" as="geometry" />
        </mxCell>
        <mxCell id="0A3lsdpq9jtskfbA3jTb-146" value="descripcion" style="ellipse;whiteSpace=wrap;html=1;" vertex="1" parent="1">
          <mxGeometry x="165" y="1890" width="70" height="30" as="geometry" />
        </mxCell>
        <mxCell id="0A3lsdpq9jtskfbA3jTb-147" value="codigo" style="ellipse;whiteSpace=wrap;html=1;" vertex="1" parent="1">
          <mxGeometry x="55" y="1890" width="60" height="30" as="geometry" />
        </mxCell>
        <mxCell id="0A3lsdpq9jtskfbA3jTb-148" value="descripcion" style="ellipse;whiteSpace=wrap;html=1;" vertex="1" parent="1">
          <mxGeometry x="205" y="2290" width="70" height="30" as="geometry" />
        </mxCell>
        <mxCell id="0A3lsdpq9jtskfbA3jTb-149" value="codigo" style="ellipse;whiteSpace=wrap;html=1;" vertex="1" parent="1">
          <mxGeometry x="110" y="2290" width="60" height="30" as="geometry" />
        </mxCell>
        <mxCell id="0A3lsdpq9jtskfbA3jTb-150" value="" style="endArrow=none;html=1;rounded=0;exitX=0.5;exitY=0;exitDx=0;exitDy=0;entryX=0.5;entryY=1;entryDx=0;entryDy=0;" edge="1" parent="1" source="0A3lsdpq9jtskfbA3jTb-120" target="0A3lsdpq9jtskfbA3jTb-146">
          <mxGeometry width="50" height="50" relative="1" as="geometry">
            <mxPoint x="445" y="2020" as="sourcePoint" />
            <mxPoint x="495" y="1970" as="targetPoint" />
          </mxGeometry>
        </mxCell>
        <mxCell id="0A3lsdpq9jtskfbA3jTb-151" value="" style="endArrow=none;html=1;rounded=0;exitX=1;exitY=0.5;exitDx=0;exitDy=0;entryX=0;entryY=0;entryDx=0;entryDy=0;" edge="1" parent="1" source="0A3lsdpq9jtskfbA3jTb-147" target="0A3lsdpq9jtskfbA3jTb-120">
          <mxGeometry width="50" height="50" relative="1" as="geometry">
            <mxPoint x="445" y="2020" as="sourcePoint" />
            <mxPoint x="495" y="1970" as="targetPoint" />
          </mxGeometry>
        </mxCell>
        <mxCell id="0A3lsdpq9jtskfbA3jTb-152" value="" style="endArrow=none;html=1;rounded=0;exitX=1;exitY=0.5;exitDx=0;exitDy=0;entryX=0;entryY=0;entryDx=0;entryDy=0;" edge="1" parent="1" source="0A3lsdpq9jtskfbA3jTb-134" target="0A3lsdpq9jtskfbA3jTb-116">
          <mxGeometry width="50" height="50" relative="1" as="geometry">
            <mxPoint x="125" y="1915" as="sourcePoint" />
            <mxPoint x="155" y="1940" as="targetPoint" />
          </mxGeometry>
        </mxCell>
        <mxCell id="0A3lsdpq9jtskfbA3jTb-153" value="" style="endArrow=none;html=1;rounded=0;exitX=1;exitY=0.5;exitDx=0;exitDy=0;entryX=0;entryY=0.25;entryDx=0;entryDy=0;" edge="1" parent="1" source="0A3lsdpq9jtskfbA3jTb-136" target="0A3lsdpq9jtskfbA3jTb-116">
          <mxGeometry width="50" height="50" relative="1" as="geometry">
            <mxPoint x="135" y="1925" as="sourcePoint" />
            <mxPoint x="165" y="1950" as="targetPoint" />
          </mxGeometry>
        </mxCell>
        <mxCell id="0A3lsdpq9jtskfbA3jTb-154" value="" style="endArrow=none;html=1;rounded=0;exitX=1;exitY=0.5;exitDx=0;exitDy=0;entryX=0;entryY=0.75;entryDx=0;entryDy=0;" edge="1" parent="1" source="0A3lsdpq9jtskfbA3jTb-137" target="0A3lsdpq9jtskfbA3jTb-116">
          <mxGeometry width="50" height="50" relative="1" as="geometry">
            <mxPoint x="145" y="1935" as="sourcePoint" />
            <mxPoint x="175" y="1960" as="targetPoint" />
          </mxGeometry>
        </mxCell>
        <mxCell id="0A3lsdpq9jtskfbA3jTb-155" value="" style="endArrow=none;html=1;rounded=0;exitX=1;exitY=0.5;exitDx=0;exitDy=0;entryX=0;entryY=1;entryDx=0;entryDy=0;" edge="1" parent="1" source="0A3lsdpq9jtskfbA3jTb-138" target="0A3lsdpq9jtskfbA3jTb-116">
          <mxGeometry width="50" height="50" relative="1" as="geometry">
            <mxPoint x="155" y="1945" as="sourcePoint" />
            <mxPoint x="185" y="1970" as="targetPoint" />
          </mxGeometry>
        </mxCell>
        <mxCell id="0A3lsdpq9jtskfbA3jTb-156" value="" style="endArrow=none;html=1;rounded=0;exitX=0.5;exitY=0;exitDx=0;exitDy=0;entryX=0.25;entryY=1;entryDx=0;entryDy=0;" edge="1" parent="1" source="0A3lsdpq9jtskfbA3jTb-149" target="0A3lsdpq9jtskfbA3jTb-119">
          <mxGeometry width="50" height="50" relative="1" as="geometry">
            <mxPoint x="165" y="1955" as="sourcePoint" />
            <mxPoint x="195" y="1980" as="targetPoint" />
          </mxGeometry>
        </mxCell>
        <mxCell id="0A3lsdpq9jtskfbA3jTb-157" value="" style="endArrow=none;html=1;rounded=0;entryX=0.5;entryY=0;entryDx=0;entryDy=0;" edge="1" parent="1" source="0A3lsdpq9jtskfbA3jTb-119" target="0A3lsdpq9jtskfbA3jTb-148">
          <mxGeometry width="50" height="50" relative="1" as="geometry">
            <mxPoint x="175" y="1965" as="sourcePoint" />
            <mxPoint x="205" y="1990" as="targetPoint" />
          </mxGeometry>
        </mxCell>
        <mxCell id="0A3lsdpq9jtskfbA3jTb-158" value="" style="endArrow=none;html=1;rounded=0;exitX=0.5;exitY=1;exitDx=0;exitDy=0;entryX=0.173;entryY=-0.02;entryDx=0;entryDy=0;entryPerimeter=0;" edge="1" parent="1" source="0A3lsdpq9jtskfbA3jTb-143" target="0A3lsdpq9jtskfbA3jTb-117">
          <mxGeometry width="50" height="50" relative="1" as="geometry">
            <mxPoint x="185" y="1975" as="sourcePoint" />
            <mxPoint x="215" y="2000" as="targetPoint" />
          </mxGeometry>
        </mxCell>
        <mxCell id="0A3lsdpq9jtskfbA3jTb-159" value="" style="endArrow=none;html=1;rounded=0;exitX=0.5;exitY=1;exitDx=0;exitDy=0;entryX=0.75;entryY=0;entryDx=0;entryDy=0;" edge="1" parent="1" source="0A3lsdpq9jtskfbA3jTb-142" target="0A3lsdpq9jtskfbA3jTb-117">
          <mxGeometry width="50" height="50" relative="1" as="geometry">
            <mxPoint x="195" y="1985" as="sourcePoint" />
            <mxPoint x="225" y="2010" as="targetPoint" />
          </mxGeometry>
        </mxCell>
        <mxCell id="0A3lsdpq9jtskfbA3jTb-160" value="" style="endArrow=none;html=1;rounded=0;exitX=0;exitY=1;exitDx=0;exitDy=0;entryX=1;entryY=0;entryDx=0;entryDy=0;" edge="1" parent="1" source="0A3lsdpq9jtskfbA3jTb-141" target="0A3lsdpq9jtskfbA3jTb-117">
          <mxGeometry width="50" height="50" relative="1" as="geometry">
            <mxPoint x="205" y="1995" as="sourcePoint" />
            <mxPoint x="235" y="2020" as="targetPoint" />
          </mxGeometry>
        </mxCell>
        <mxCell id="0A3lsdpq9jtskfbA3jTb-161" value="" style="endArrow=none;html=1;rounded=0;exitX=1;exitY=0.25;exitDx=0;exitDy=0;entryX=0;entryY=0.5;entryDx=0;entryDy=0;" edge="1" parent="1" source="0A3lsdpq9jtskfbA3jTb-117" target="0A3lsdpq9jtskfbA3jTb-140">
          <mxGeometry width="50" height="50" relative="1" as="geometry">
            <mxPoint x="215" y="2005" as="sourcePoint" />
            <mxPoint x="245" y="2030" as="targetPoint" />
          </mxGeometry>
        </mxCell>
        <mxCell id="0A3lsdpq9jtskfbA3jTb-162" value="" style="endArrow=none;html=1;rounded=0;entryX=0;entryY=0.5;entryDx=0;entryDy=0;exitX=1;exitY=1;exitDx=0;exitDy=0;" edge="1" parent="1" source="0A3lsdpq9jtskfbA3jTb-117" target="0A3lsdpq9jtskfbA3jTb-139">
          <mxGeometry width="50" height="50" relative="1" as="geometry">
            <mxPoint x="505" y="2110" as="sourcePoint" />
            <mxPoint x="255" y="2040" as="targetPoint" />
          </mxGeometry>
        </mxCell>
        <mxCell id="0A3lsdpq9jtskfbA3jTb-163" value="" style="endArrow=none;html=1;rounded=0;exitX=1;exitY=0.25;exitDx=0;exitDy=0;entryX=0;entryY=0.5;entryDx=0;entryDy=0;" edge="1" parent="1" source="0A3lsdpq9jtskfbA3jTb-118" target="0A3lsdpq9jtskfbA3jTb-144">
          <mxGeometry width="50" height="50" relative="1" as="geometry">
            <mxPoint x="235" y="2025" as="sourcePoint" />
            <mxPoint x="265" y="2050" as="targetPoint" />
          </mxGeometry>
        </mxCell>
        <mxCell id="0A3lsdpq9jtskfbA3jTb-164" value="" style="endArrow=none;html=1;rounded=0;exitX=1;exitY=0.75;exitDx=0;exitDy=0;entryX=0;entryY=0.5;entryDx=0;entryDy=0;" edge="1" parent="1" source="0A3lsdpq9jtskfbA3jTb-118" target="0A3lsdpq9jtskfbA3jTb-145">
          <mxGeometry width="50" height="50" relative="1" as="geometry">
            <mxPoint x="245" y="2035" as="sourcePoint" />
            <mxPoint x="275" y="2060" as="targetPoint" />
          </mxGeometry>
        </mxCell>
        <mxCell id="0A3lsdpq9jtskfbA3jTb-165" value="N:M" style="text;html=1;strokeColor=none;fillColor=none;align=center;verticalAlign=middle;whiteSpace=wrap;rounded=0;" vertex="1" parent="1">
          <mxGeometry x="290" y="2030" width="60" height="30" as="geometry" />
        </mxCell>
        <mxCell id="0A3lsdpq9jtskfbA3jTb-166" value="1:M" style="text;html=1;strokeColor=none;fillColor=none;align=center;verticalAlign=middle;whiteSpace=wrap;rounded=0;" vertex="1" parent="1">
          <mxGeometry x="470" y="2150" width="60" height="30" as="geometry" />
        </mxCell>
        <mxCell id="0A3lsdpq9jtskfbA3jTb-167" value="N:M" style="text;html=1;strokeColor=none;fillColor=none;align=center;verticalAlign=middle;whiteSpace=wrap;rounded=0;" vertex="1" parent="1">
          <mxGeometry x="225" y="2150" width="60" height="30" as="geometry" />
        </mxCell>
        <mxCell id="0A3lsdpq9jtskfbA3jTb-168" value="N:M" style="text;html=1;strokeColor=none;fillColor=none;align=center;verticalAlign=middle;whiteSpace=wrap;rounded=0;" vertex="1" parent="1">
          <mxGeometry x="225" y="2010" width="60" height="30" as="geometry" />
        </mxCell>
        <mxCell id="0A3lsdpq9jtskfbA3jTb-169" value="&lt;br&gt;&lt;br&gt;Ejercicio 4.&lt;br&gt;&lt;br&gt;Entidad:&lt;br&gt;&lt;br&gt;Aprendiz&lt;br&gt;Instructor&lt;br&gt;Curso&lt;br&gt;Grupo&lt;br&gt;Empresa&lt;br&gt;" style="text;html=1;strokeColor=none;fillColor=none;spacing=5;spacingTop=-20;whiteSpace=wrap;overflow=hidden;rounded=0;" vertex="1" parent="1">
          <mxGeometry x="35" y="2390" width="190" height="160" as="geometry" />
        </mxCell>
        <mxCell id="0A3lsdpq9jtskfbA3jTb-170" value="&lt;br&gt;&lt;br&gt;.&lt;br&gt;&lt;br&gt;Atributos:&lt;br&gt;&lt;br&gt;#&amp;nbsp; de documento, nombre, fecha de nacimiento, direccion, telefono, estrato&lt;br&gt;# de documento, nombre, direccion, telefono&lt;br&gt;codigo, nombre&lt;br&gt;numero, aÃ±o&lt;br&gt;Nit, nombre, direccion, telefono&lt;br&gt;&amp;nbsp;" style="text;html=1;strokeColor=none;fillColor=none;spacing=5;spacingTop=-20;whiteSpace=wrap;overflow=hidden;rounded=0;" vertex="1" parent="1">
          <mxGeometry x="120" y="2390" width="500" height="160" as="geometry" />
        </mxCell>
        <mxCell id="0A3lsdpq9jtskfbA3jTb-171" value="aprendiz" style="rounded=0;whiteSpace=wrap;html=1;" vertex="1" parent="1">
          <mxGeometry x="119" y="2720" width="110" height="50" as="geometry" />
        </mxCell>
        <mxCell id="0A3lsdpq9jtskfbA3jTb-172" value="curso" style="rounded=0;whiteSpace=wrap;html=1;" vertex="1" parent="1">
          <mxGeometry x="371" y="2720" width="110" height="50" as="geometry" />
        </mxCell>
        <mxCell id="0A3lsdpq9jtskfbA3jTb-173" value="empresa" style="rounded=0;whiteSpace=wrap;html=1;" vertex="1" parent="1">
          <mxGeometry x="119" y="2870" width="110" height="50" as="geometry" />
        </mxCell>
        <mxCell id="0A3lsdpq9jtskfbA3jTb-174" value="instructor" style="rounded=0;whiteSpace=wrap;html=1;" vertex="1" parent="1">
          <mxGeometry x="369" y="2873" width="110" height="50" as="geometry" />
        </mxCell>
        <mxCell id="0A3lsdpq9jtskfbA3jTb-175" value="grupo" style="rounded=0;whiteSpace=wrap;html=1;" vertex="1" parent="1">
          <mxGeometry x="599" y="2794" width="110" height="50" as="geometry" />
        </mxCell>
        <mxCell id="0A3lsdpq9jtskfbA3jTb-176" value="matricula" style="rhombus;whiteSpace=wrap;html=1;" vertex="1" parent="1">
          <mxGeometry x="263" y="2715" width="80" height="60" as="geometry" />
        </mxCell>
        <mxCell id="0A3lsdpq9jtskfbA3jTb-177" value="patrocinado" style="rhombus;whiteSpace=wrap;html=1;" vertex="1" parent="1">
          <mxGeometry x="134" y="2790" width="80" height="60" as="geometry" />
        </mxCell>
        <mxCell id="0A3lsdpq9jtskfbA3jTb-178" value="imparte" style="rhombus;whiteSpace=wrap;html=1;" vertex="1" parent="1">
          <mxGeometry x="495" y="2790" width="80" height="60" as="geometry" />
        </mxCell>
        <mxCell id="0A3lsdpq9jtskfbA3jTb-179" value="instituto pedagogico" style="rounded=0;whiteSpace=wrap;html=1;" vertex="1" parent="1">
          <mxGeometry x="371" y="2570" width="110" height="50" as="geometry" />
        </mxCell>
        <mxCell id="0A3lsdpq9jtskfbA3jTb-180" value="petenece" style="rhombus;whiteSpace=wrap;html=1;" vertex="1" parent="1">
          <mxGeometry x="386" y="2640" width="80" height="60" as="geometry" />
        </mxCell>
        <mxCell id="0A3lsdpq9jtskfbA3jTb-181" value="" style="endArrow=none;html=1;rounded=0;entryX=0.5;entryY=1;entryDx=0;entryDy=0;exitX=0.5;exitY=0;exitDx=0;exitDy=0;" edge="1" parent="1" source="0A3lsdpq9jtskfbA3jTb-180" target="0A3lsdpq9jtskfbA3jTb-179">
          <mxGeometry width="50" height="50" relative="1" as="geometry">
            <mxPoint x="390" y="2720" as="sourcePoint" />
            <mxPoint x="440" y="2670" as="targetPoint" />
          </mxGeometry>
        </mxCell>
        <mxCell id="0A3lsdpq9jtskfbA3jTb-182" value="" style="endArrow=none;html=1;rounded=0;exitX=0.5;exitY=0;exitDx=0;exitDy=0;entryX=0.5;entryY=1;entryDx=0;entryDy=0;" edge="1" parent="1" source="0A3lsdpq9jtskfbA3jTb-172" target="0A3lsdpq9jtskfbA3jTb-180">
          <mxGeometry width="50" height="50" relative="1" as="geometry">
            <mxPoint x="400" y="2730" as="sourcePoint" />
            <mxPoint x="450" y="2680" as="targetPoint" />
          </mxGeometry>
        </mxCell>
        <mxCell id="0A3lsdpq9jtskfbA3jTb-183" value="" style="endArrow=none;html=1;rounded=0;exitX=1;exitY=0.5;exitDx=0;exitDy=0;entryX=0;entryY=0.5;entryDx=0;entryDy=0;" edge="1" parent="1" source="0A3lsdpq9jtskfbA3jTb-178" target="0A3lsdpq9jtskfbA3jTb-175">
          <mxGeometry width="50" height="50" relative="1" as="geometry">
            <mxPoint x="410" y="2740" as="sourcePoint" />
            <mxPoint x="460" y="2690" as="targetPoint" />
          </mxGeometry>
        </mxCell>
        <mxCell id="0A3lsdpq9jtskfbA3jTb-184" value="" style="endArrow=none;html=1;rounded=0;exitX=1;exitY=0;exitDx=0;exitDy=0;entryX=0;entryY=1;entryDx=0;entryDy=0;" edge="1" parent="1" source="0A3lsdpq9jtskfbA3jTb-174" target="0A3lsdpq9jtskfbA3jTb-178">
          <mxGeometry width="50" height="50" relative="1" as="geometry">
            <mxPoint x="420" y="2750" as="sourcePoint" />
            <mxPoint x="470" y="2700" as="targetPoint" />
          </mxGeometry>
        </mxCell>
        <mxCell id="0A3lsdpq9jtskfbA3jTb-185" value="" style="endArrow=none;html=1;rounded=0;exitX=1;exitY=1;exitDx=0;exitDy=0;entryX=0;entryY=0;entryDx=0;entryDy=0;" edge="1" parent="1" source="0A3lsdpq9jtskfbA3jTb-172" target="0A3lsdpq9jtskfbA3jTb-178">
          <mxGeometry width="50" height="50" relative="1" as="geometry">
            <mxPoint x="430" y="2760" as="sourcePoint" />
            <mxPoint x="480" y="2710" as="targetPoint" />
          </mxGeometry>
        </mxCell>
        <mxCell id="0A3lsdpq9jtskfbA3jTb-186" value="" style="endArrow=none;html=1;rounded=0;exitX=1;exitY=0.5;exitDx=0;exitDy=0;entryX=0;entryY=0.5;entryDx=0;entryDy=0;" edge="1" parent="1" source="0A3lsdpq9jtskfbA3jTb-176" target="0A3lsdpq9jtskfbA3jTb-172">
          <mxGeometry width="50" height="50" relative="1" as="geometry">
            <mxPoint x="440" y="2770" as="sourcePoint" />
            <mxPoint x="490" y="2720" as="targetPoint" />
          </mxGeometry>
        </mxCell>
        <mxCell id="0A3lsdpq9jtskfbA3jTb-187" value="" style="endArrow=none;html=1;rounded=0;exitX=1;exitY=0.5;exitDx=0;exitDy=0;entryX=0;entryY=0.5;entryDx=0;entryDy=0;" edge="1" parent="1" source="0A3lsdpq9jtskfbA3jTb-171" target="0A3lsdpq9jtskfbA3jTb-176">
          <mxGeometry width="50" height="50" relative="1" as="geometry">
            <mxPoint x="450" y="2780" as="sourcePoint" />
            <mxPoint x="500" y="2730" as="targetPoint" />
          </mxGeometry>
        </mxCell>
        <mxCell id="0A3lsdpq9jtskfbA3jTb-188" value="" style="endArrow=none;html=1;rounded=0;exitX=0.5;exitY=0;exitDx=0;exitDy=0;entryX=0.5;entryY=1;entryDx=0;entryDy=0;" edge="1" parent="1" source="0A3lsdpq9jtskfbA3jTb-177" target="0A3lsdpq9jtskfbA3jTb-171">
          <mxGeometry width="50" height="50" relative="1" as="geometry">
            <mxPoint x="460" y="2790" as="sourcePoint" />
            <mxPoint x="510" y="2740" as="targetPoint" />
          </mxGeometry>
        </mxCell>
        <mxCell id="0A3lsdpq9jtskfbA3jTb-189" value="" style="endArrow=none;html=1;rounded=0;exitX=0.5;exitY=0;exitDx=0;exitDy=0;entryX=0.5;entryY=1;entryDx=0;entryDy=0;" edge="1" parent="1" source="0A3lsdpq9jtskfbA3jTb-173" target="0A3lsdpq9jtskfbA3jTb-177">
          <mxGeometry width="50" height="50" relative="1" as="geometry">
            <mxPoint x="470" y="2800" as="sourcePoint" />
            <mxPoint x="520" y="2750" as="targetPoint" />
          </mxGeometry>
        </mxCell>
        <mxCell id="0A3lsdpq9jtskfbA3jTb-190" value="# documento" style="ellipse;whiteSpace=wrap;html=1;" vertex="1" parent="1">
          <mxGeometry x="20" y="2740" width="70" height="40" as="geometry" />
        </mxCell>
        <mxCell id="0A3lsdpq9jtskfbA3jTb-191" value="nombre" style="ellipse;whiteSpace=wrap;html=1;" vertex="1" parent="1">
          <mxGeometry x="15" y="2680" width="70" height="40" as="geometry" />
        </mxCell>
        <mxCell id="0A3lsdpq9jtskfbA3jTb-192" value="fecha de nacimiento" style="ellipse;whiteSpace=wrap;html=1;" vertex="1" parent="1">
          <mxGeometry x="25" y="2620" width="70" height="40" as="geometry" />
        </mxCell>
        <mxCell id="0A3lsdpq9jtskfbA3jTb-193" value="direccion" style="ellipse;whiteSpace=wrap;html=1;" vertex="1" parent="1">
          <mxGeometry x="110" y="2600" width="70" height="40" as="geometry" />
        </mxCell>
        <mxCell id="0A3lsdpq9jtskfbA3jTb-194" value="telefono" style="ellipse;whiteSpace=wrap;html=1;" vertex="1" parent="1">
          <mxGeometry x="193" y="2610" width="70" height="40" as="geometry" />
        </mxCell>
        <mxCell id="0A3lsdpq9jtskfbA3jTb-195" value="nombre" style="ellipse;whiteSpace=wrap;html=1;" vertex="1" parent="1">
          <mxGeometry x="345" y="2970" width="70" height="40" as="geometry" />
        </mxCell>
        <mxCell id="0A3lsdpq9jtskfbA3jTb-196" value="direccion" style="ellipse;whiteSpace=wrap;html=1;" vertex="1" parent="1">
          <mxGeometry x="429" y="2970" width="70" height="40" as="geometry" />
        </mxCell>
        <mxCell id="0A3lsdpq9jtskfbA3jTb-197" value="telefono" style="ellipse;whiteSpace=wrap;html=1;" vertex="1" parent="1">
          <mxGeometry x="520" y="2960" width="70" height="40" as="geometry" />
        </mxCell>
        <mxCell id="0A3lsdpq9jtskfbA3jTb-198" value="# documento" style="ellipse;whiteSpace=wrap;html=1;" vertex="1" parent="1">
          <mxGeometry x="276" y="2930" width="70" height="40" as="geometry" />
        </mxCell>
        <mxCell id="0A3lsdpq9jtskfbA3jTb-199" value="codigo" style="ellipse;whiteSpace=wrap;html=1;" vertex="1" parent="1">
          <mxGeometry x="505" y="2670" width="70" height="40" as="geometry" />
        </mxCell>
        <mxCell id="0A3lsdpq9jtskfbA3jTb-200" value="nombre" style="ellipse;whiteSpace=wrap;html=1;" vertex="1" parent="1">
          <mxGeometry x="504" y="2725" width="70" height="40" as="geometry" />
        </mxCell>
        <mxCell id="0A3lsdpq9jtskfbA3jTb-201" value="numero" style="ellipse;whiteSpace=wrap;html=1;" vertex="1" parent="1">
          <mxGeometry x="650" y="2720" width="70" height="40" as="geometry" />
        </mxCell>
        <mxCell id="0A3lsdpq9jtskfbA3jTb-202" value="aÃ±o" style="ellipse;whiteSpace=wrap;html=1;" vertex="1" parent="1">
          <mxGeometry x="730" y="2765" width="70" height="40" as="geometry" />
        </mxCell>
        <mxCell id="0A3lsdpq9jtskfbA3jTb-203" value="nit" style="ellipse;whiteSpace=wrap;html=1;" vertex="1" parent="1">
          <mxGeometry x="10" y="2878" width="70" height="40" as="geometry" />
        </mxCell>
        <mxCell id="0A3lsdpq9jtskfbA3jTb-204" value="nombre" style="ellipse;whiteSpace=wrap;html=1;" vertex="1" parent="1">
          <mxGeometry x="25" y="2950" width="70" height="40" as="geometry" />
        </mxCell>
        <mxCell id="0A3lsdpq9jtskfbA3jTb-205" value="direccion" style="ellipse;whiteSpace=wrap;html=1;" vertex="1" parent="1">
          <mxGeometry x="110" y="2960" width="70" height="40" as="geometry" />
        </mxCell>
        <mxCell id="0A3lsdpq9jtskfbA3jTb-206" value="telefono" style="ellipse;whiteSpace=wrap;html=1;" vertex="1" parent="1">
          <mxGeometry x="190" y="2940" width="70" height="40" as="geometry" />
        </mxCell>
        <mxCell id="0A3lsdpq9jtskfbA3jTb-207" value="estrato" style="ellipse;whiteSpace=wrap;html=1;" vertex="1" parent="1">
          <mxGeometry x="220" y="2660" width="70" height="40" as="geometry" />
        </mxCell>
        <mxCell id="0A3lsdpq9jtskfbA3jTb-209" value="" style="endArrow=none;html=1;rounded=0;exitX=0;exitY=1;exitDx=0;exitDy=0;entryX=1;entryY=0.5;entryDx=0;entryDy=0;" edge="1" parent="1" source="0A3lsdpq9jtskfbA3jTb-202" target="0A3lsdpq9jtskfbA3jTb-175">
          <mxGeometry width="50" height="50" relative="1" as="geometry">
            <mxPoint x="390" y="2700" as="sourcePoint" />
            <mxPoint x="440" y="2650" as="targetPoint" />
          </mxGeometry>
        </mxCell>
        <mxCell id="0A3lsdpq9jtskfbA3jTb-210" value="" style="endArrow=none;html=1;rounded=0;exitX=0.4;exitY=1.05;exitDx=0;exitDy=0;exitPerimeter=0;" edge="1" parent="1" source="0A3lsdpq9jtskfbA3jTb-201" target="0A3lsdpq9jtskfbA3jTb-175">
          <mxGeometry width="50" height="50" relative="1" as="geometry">
            <mxPoint x="400" y="2710" as="sourcePoint" />
            <mxPoint x="450" y="2660" as="targetPoint" />
          </mxGeometry>
        </mxCell>
        <mxCell id="0A3lsdpq9jtskfbA3jTb-211" value="" style="endArrow=none;html=1;rounded=0;exitX=0.014;exitY=0.8;exitDx=0;exitDy=0;exitPerimeter=0;entryX=1;entryY=0;entryDx=0;entryDy=0;" edge="1" parent="1" source="0A3lsdpq9jtskfbA3jTb-199" target="0A3lsdpq9jtskfbA3jTb-172">
          <mxGeometry width="50" height="50" relative="1" as="geometry">
            <mxPoint x="410" y="2720" as="sourcePoint" />
            <mxPoint x="460" y="2670" as="targetPoint" />
          </mxGeometry>
        </mxCell>
        <mxCell id="0A3lsdpq9jtskfbA3jTb-212" value="" style="endArrow=none;html=1;rounded=0;exitX=0;exitY=0.5;exitDx=0;exitDy=0;entryX=1;entryY=0.5;entryDx=0;entryDy=0;" edge="1" parent="1" source="0A3lsdpq9jtskfbA3jTb-200" target="0A3lsdpq9jtskfbA3jTb-172">
          <mxGeometry width="50" height="50" relative="1" as="geometry">
            <mxPoint x="420" y="2730" as="sourcePoint" />
            <mxPoint x="470" y="2680" as="targetPoint" />
          </mxGeometry>
        </mxCell>
        <mxCell id="0A3lsdpq9jtskfbA3jTb-213" value="" style="endArrow=none;html=1;rounded=0;exitX=0;exitY=0;exitDx=0;exitDy=0;entryX=1;entryY=1;entryDx=0;entryDy=0;" edge="1" parent="1" source="0A3lsdpq9jtskfbA3jTb-197" target="0A3lsdpq9jtskfbA3jTb-174">
          <mxGeometry width="50" height="50" relative="1" as="geometry">
            <mxPoint x="430" y="2740" as="sourcePoint" />
            <mxPoint x="480" y="2690" as="targetPoint" />
          </mxGeometry>
        </mxCell>
        <mxCell id="0A3lsdpq9jtskfbA3jTb-214" value="" style="endArrow=none;html=1;rounded=0;exitX=0.386;exitY=-0.05;exitDx=0;exitDy=0;exitPerimeter=0;entryX=0.75;entryY=1;entryDx=0;entryDy=0;" edge="1" parent="1" source="0A3lsdpq9jtskfbA3jTb-196" target="0A3lsdpq9jtskfbA3jTb-174">
          <mxGeometry width="50" height="50" relative="1" as="geometry">
            <mxPoint x="440" y="2750" as="sourcePoint" />
            <mxPoint x="490" y="2700" as="targetPoint" />
          </mxGeometry>
        </mxCell>
        <mxCell id="0A3lsdpq9jtskfbA3jTb-215" value="" style="endArrow=none;html=1;rounded=0;exitX=0.643;exitY=0;exitDx=0;exitDy=0;exitPerimeter=0;entryX=0.327;entryY=1;entryDx=0;entryDy=0;entryPerimeter=0;" edge="1" parent="1" source="0A3lsdpq9jtskfbA3jTb-195" target="0A3lsdpq9jtskfbA3jTb-174">
          <mxGeometry width="50" height="50" relative="1" as="geometry">
            <mxPoint x="450" y="2760" as="sourcePoint" />
            <mxPoint x="500" y="2710" as="targetPoint" />
          </mxGeometry>
        </mxCell>
        <mxCell id="0A3lsdpq9jtskfbA3jTb-216" value="" style="endArrow=none;html=1;rounded=0;exitX=1;exitY=0;exitDx=0;exitDy=0;entryX=0;entryY=1;entryDx=0;entryDy=0;" edge="1" parent="1" source="0A3lsdpq9jtskfbA3jTb-198" target="0A3lsdpq9jtskfbA3jTb-174">
          <mxGeometry width="50" height="50" relative="1" as="geometry">
            <mxPoint x="460" y="2770" as="sourcePoint" />
            <mxPoint x="510" y="2720" as="targetPoint" />
          </mxGeometry>
        </mxCell>
        <mxCell id="0A3lsdpq9jtskfbA3jTb-217" value="" style="endArrow=none;html=1;rounded=0;exitX=0.5;exitY=0;exitDx=0;exitDy=0;entryX=0.818;entryY=1.04;entryDx=0;entryDy=0;entryPerimeter=0;" edge="1" parent="1" source="0A3lsdpq9jtskfbA3jTb-206" target="0A3lsdpq9jtskfbA3jTb-173">
          <mxGeometry width="50" height="50" relative="1" as="geometry">
            <mxPoint x="470" y="2780" as="sourcePoint" />
            <mxPoint x="520" y="2730" as="targetPoint" />
          </mxGeometry>
        </mxCell>
        <mxCell id="0A3lsdpq9jtskfbA3jTb-218" value="" style="endArrow=none;html=1;rounded=0;exitX=0.5;exitY=0;exitDx=0;exitDy=0;entryX=0.327;entryY=1;entryDx=0;entryDy=0;entryPerimeter=0;" edge="1" parent="1" source="0A3lsdpq9jtskfbA3jTb-205" target="0A3lsdpq9jtskfbA3jTb-173">
          <mxGeometry width="50" height="50" relative="1" as="geometry">
            <mxPoint x="480" y="2790" as="sourcePoint" />
            <mxPoint x="530" y="2740" as="targetPoint" />
          </mxGeometry>
        </mxCell>
        <mxCell id="0A3lsdpq9jtskfbA3jTb-219" value="" style="endArrow=none;html=1;rounded=0;exitX=0.971;exitY=0.225;exitDx=0;exitDy=0;exitPerimeter=0;entryX=0;entryY=1;entryDx=0;entryDy=0;" edge="1" parent="1" source="0A3lsdpq9jtskfbA3jTb-204" target="0A3lsdpq9jtskfbA3jTb-173">
          <mxGeometry width="50" height="50" relative="1" as="geometry">
            <mxPoint x="490" y="2800" as="sourcePoint" />
            <mxPoint x="540" y="2750" as="targetPoint" />
          </mxGeometry>
        </mxCell>
        <mxCell id="0A3lsdpq9jtskfbA3jTb-220" value="" style="endArrow=none;html=1;rounded=0;exitX=1;exitY=0.5;exitDx=0;exitDy=0;entryX=0;entryY=0.5;entryDx=0;entryDy=0;" edge="1" parent="1" source="0A3lsdpq9jtskfbA3jTb-203" target="0A3lsdpq9jtskfbA3jTb-173">
          <mxGeometry width="50" height="50" relative="1" as="geometry">
            <mxPoint x="500" y="2810" as="sourcePoint" />
            <mxPoint x="550" y="2760" as="targetPoint" />
          </mxGeometry>
        </mxCell>
        <mxCell id="0A3lsdpq9jtskfbA3jTb-221" value="" style="endArrow=none;html=1;rounded=0;exitX=1;exitY=0;exitDx=0;exitDy=0;entryX=0.4;entryY=1.05;entryDx=0;entryDy=0;entryPerimeter=0;" edge="1" parent="1" source="0A3lsdpq9jtskfbA3jTb-171" target="0A3lsdpq9jtskfbA3jTb-207">
          <mxGeometry width="50" height="50" relative="1" as="geometry">
            <mxPoint x="510" y="2820" as="sourcePoint" />
            <mxPoint x="560" y="2770" as="targetPoint" />
          </mxGeometry>
        </mxCell>
        <mxCell id="0A3lsdpq9jtskfbA3jTb-222" value="" style="endArrow=none;html=1;rounded=0;exitX=0;exitY=1;exitDx=0;exitDy=0;entryX=0.682;entryY=0.02;entryDx=0;entryDy=0;entryPerimeter=0;" edge="1" parent="1" source="0A3lsdpq9jtskfbA3jTb-194" target="0A3lsdpq9jtskfbA3jTb-171">
          <mxGeometry width="50" height="50" relative="1" as="geometry">
            <mxPoint x="520" y="2830" as="sourcePoint" />
            <mxPoint x="570" y="2780" as="targetPoint" />
          </mxGeometry>
        </mxCell>
        <mxCell id="0A3lsdpq9jtskfbA3jTb-223" value="" style="endArrow=none;html=1;rounded=0;exitX=0.643;exitY=1;exitDx=0;exitDy=0;exitPerimeter=0;entryX=0.391;entryY=0.04;entryDx=0;entryDy=0;entryPerimeter=0;" edge="1" parent="1" source="0A3lsdpq9jtskfbA3jTb-193" target="0A3lsdpq9jtskfbA3jTb-171">
          <mxGeometry width="50" height="50" relative="1" as="geometry">
            <mxPoint x="530" y="2840" as="sourcePoint" />
            <mxPoint x="580" y="2790" as="targetPoint" />
          </mxGeometry>
        </mxCell>
        <mxCell id="0A3lsdpq9jtskfbA3jTb-224" value="" style="endArrow=none;html=1;rounded=0;entryX=1;entryY=1;entryDx=0;entryDy=0;exitX=0.127;exitY=0.04;exitDx=0;exitDy=0;exitPerimeter=0;" edge="1" parent="1" source="0A3lsdpq9jtskfbA3jTb-171" target="0A3lsdpq9jtskfbA3jTb-192">
          <mxGeometry width="50" height="50" relative="1" as="geometry">
            <mxPoint x="540" y="2850" as="sourcePoint" />
            <mxPoint x="590" y="2800" as="targetPoint" />
          </mxGeometry>
        </mxCell>
        <mxCell id="0A3lsdpq9jtskfbA3jTb-225" value="" style="endArrow=none;html=1;rounded=0;exitX=1;exitY=1;exitDx=0;exitDy=0;entryX=0;entryY=0.25;entryDx=0;entryDy=0;" edge="1" parent="1" source="0A3lsdpq9jtskfbA3jTb-191" target="0A3lsdpq9jtskfbA3jTb-171">
          <mxGeometry width="50" height="50" relative="1" as="geometry">
            <mxPoint x="550" y="2860" as="sourcePoint" />
            <mxPoint x="600" y="2810" as="targetPoint" />
          </mxGeometry>
        </mxCell>
        <mxCell id="0A3lsdpq9jtskfbA3jTb-226" value="" style="endArrow=none;html=1;rounded=0;exitX=0;exitY=0.5;exitDx=0;exitDy=0;entryX=1;entryY=0.5;entryDx=0;entryDy=0;" edge="1" parent="1" source="0A3lsdpq9jtskfbA3jTb-171" target="0A3lsdpq9jtskfbA3jTb-190">
          <mxGeometry width="50" height="50" relative="1" as="geometry">
            <mxPoint x="560" y="2870" as="sourcePoint" />
            <mxPoint x="610" y="2820" as="targetPoint" />
          </mxGeometry>
        </mxCell>
        <mxCell id="0A3lsdpq9jtskfbA3jTb-228" value="N:M" style="text;html=1;strokeColor=none;fillColor=none;align=center;verticalAlign=middle;whiteSpace=wrap;rounded=0;" vertex="1" parent="1">
          <mxGeometry x="273" y="2775" width="60" height="30" as="geometry" />
        </mxCell>
        <mxCell id="0A3lsdpq9jtskfbA3jTb-229" value="1:N" style="text;html=1;strokeColor=none;fillColor=none;align=center;verticalAlign=middle;whiteSpace=wrap;rounded=0;" vertex="1" parent="1">
          <mxGeometry x="90" y="2804" width="60" height="30" as="geometry" />
        </mxCell>
        <mxCell id="0A3lsdpq9jtskfbA3jTb-230" value="1:N" style="text;html=1;strokeColor=none;fillColor=none;align=center;verticalAlign=middle;whiteSpace=wrap;rounded=0;" vertex="1" parent="1">
          <mxGeometry x="340" y="2655" width="60" height="30" as="geometry" />
        </mxCell>
        <mxCell id="0A3lsdpq9jtskfbA3jTb-231" value="N:M:M" style="text;html=1;strokeColor=none;fillColor=none;align=center;verticalAlign=middle;whiteSpace=wrap;rounded=0;" vertex="1" parent="1">
          <mxGeometry x="509" y="2850" width="60" height="30" as="geometry" />
        </mxCell>
      </root>
    </mxGraphModel>
  </diagram>
</mxfile>
